<?xml version="1.0" standalone="no"?>
<!DOCTYPE svg PUBLIC "-//W3C//DTD SVG 20010904//EN"
 "http://www.w3.org/TR/2001/REC-SVG-20010904/DTD/svg10.dtd">
<svg version="1.0" xmlns="http://www.w3.org/2000/svg"
 width="387.000000pt" height="387.000000pt" viewBox="0 0 387.000000 387.000000"
 preserveAspectRatio="xMidYMid meet">
<metadata>
Created by potrace 1.14, written by Peter Selinger 2001-2017
</metadata>
<g transform="translate(0.000000,387.000000) scale(0.100000,-0.100000)"
fill="#000000" stroke="none">
<path d="M509 2776 c-2 -2 -47 -7 -99 -10 -198 -14 -280 -45 -341 -131 -53
-75 -62 -132 -65 -425 -1 -146 2 -292 7 -325 24 -149 100 -226 261 -261 117
-26 910 -25 936 1 3 3 -6 18 -20 33 -36 38 -74 119 -82 175 -7 43 -15 53 -40
48 -42 -9 -579 -1 -613 8 -90 24 -105 69 -105 302 1 195 18 256 79 280 38 14
141 21 343 21 287 0 340 -5 368 -37 12 -14 22 -37 22 -50 0 -13 6 -27 13 -32
13 -8 303 -12 325 -5 19 7 9 174 -13 230 -33 81 -137 146 -253 158 -20 2 -53
6 -72 9 -40 7 -645 16 -651 11z"/>
<path d="M1658 2775 c-3 -3 -120 -13 -172 -14 -15 -1 -12 -8 19 -42 46 -51 65
-95 80 -179 12 -70 9 -68 81 -55 48 9 326 9 439 1 110 -8 141 -21 151 -64 13
-60 18 -65 69 -68 57 -3 66 4 105 81 14 28 44 86 68 130 56 104 54 122 -18
157 -30 15 -80 33 -110 39 -49 10 -703 23 -712 14z"/>
<path d="M2935 2760 c-132 -3 -241 -7 -242 -8 -1 -1 -32 -59 -69 -129 -37 -71
-84 -159 -104 -198 -21 -38 -86 -162 -145 -275 -110 -209 -127 -234 -167 -249
-40 -14 -374 -20 -534 -8 -153 11 -165 29 -163 223 0 74 -2 138 -6 142 -10 10
-775 10 -781 0 -5 -8 -7 -119 -5 -195 l1 -23 219 0 c149 0 222 -4 227 -11 3
-6 8 -36 10 -68 5 -102 20 -165 50 -212 29 -46 77 -84 132 -103 23 -8 42 -13
42 -11 0 3 11 1 23 -4 46 -18 185 -26 437 -26 337 0 431 9 550 48 114 38 135
69 338 477 l177 355 36 3 c22 2 40 -2 47 -11 7 -8 105 -201 219 -428 113 -228
211 -417 217 -421 12 -8 386 -11 386 -3 0 2 -23 48 -51 102 -28 54 -83 159
-121 233 -39 74 -92 176 -118 225 -26 50 -88 169 -138 265 -50 96 -106 204
-125 240 -30 57 -37 65 -68 70 -19 3 -142 3 -274 0z"/>
<path d="M70 1414 c-41 -29 -58 -67 -55 -123 3 -55 31 -92 83 -111 37 -13 45
-12 77 3 19 9 35 12 35 7 0 -6 8 -10 18 -10 16 0 19 8 18 65 -1 36 -3 65 -6
66 -3 1 -25 2 -51 3 -41 1 -45 -1 -47 -23 -2 -19 2 -22 19 -18 12 3 22 0 26
-9 16 -43 -73 -62 -101 -22 -9 12 -16 42 -16 65 0 73 59 104 110 58 11 -10 27
-20 35 -21 46 -7 8 71 -39 82 -55 13 -72 11 -106 -12z"/>
<path d="M553 1419 c-62 -41 -81 -129 -40 -190 41 -61 103 -75 163 -38 40 24
50 40 58 91 8 52 -18 114 -56 134 -45 23 -92 24 -125 3z m108 -58 c24 -30 24
-89 1 -119 -14 -18 -26 -23 -53 -20 -45 4 -71 50 -58 106 14 63 72 81 110 33z"/>
<path d="M915 1425 c-43 -18 -74 -79 -70 -133 8 -96 87 -144 177 -107 22 9 48
49 48 74 0 26 -38 24 -52 -4 -14 -26 -28 -35 -57 -35 -35 0 -61 36 -61 84 1
50 17 74 57 82 24 5 34 1 49 -18 10 -12 30 -24 43 -26 21 -2 22 1 16 25 -3 15
-12 31 -18 36 -50 34 -89 40 -132 22z"/>
<path d="M1643 1422 c-18 -10 -39 -26 -47 -37 -20 -30 -27 -95 -13 -134 23
-65 104 -99 155 -65 18 12 27 13 30 6 2 -7 11 -12 21 -12 14 0 17 10 16 65 0
36 -2 65 -5 66 -3 1 -26 2 -52 3 -43 1 -48 -1 -48 -21 0 -17 5 -21 25 -18 18
1 25 -3 25 -14 0 -44 -65 -56 -100 -19 -11 13 -20 35 -20 54 0 32 18 83 29 85
3 0 17 2 30 5 16 3 33 -3 48 -18 42 -39 73 -30 52 16 -20 44 -97 64 -146 38z"/>
<path d="M1923 1430 c-61 -14 -93 -60 -93 -134 0 -63 43 -112 105 -122 100
-15 169 86 128 187 -23 57 -77 84 -140 69z m76 -67 c28 -34 28 -96 1 -123 -57
-57 -139 17 -109 98 20 55 75 68 108 25z"/>
<path d="M3445 1408 c-73 -61 -63 -183 19 -222 44 -21 74 -20 112 3 33 20 61
76 43 86 -16 10 -44 -4 -54 -27 -12 -28 -61 -35 -89 -13 -15 11 -20 28 -20 66
-1 42 3 54 23 70 29 24 65 18 90 -13 13 -15 23 -19 39 -14 21 7 21 9 6 37 -29
58 -115 71 -169 27z"/>
<path d="M280 1305 c0 -140 -8 -127 80 -127 109 0 110 1 110 25 0 22 -3 23
-64 21 -52 -1 -65 2 -69 15 -9 35 6 46 63 46 48 0 55 2 55 20 0 17 -7 20 -51
21 -70 1 -85 12 -65 43 7 10 27 14 71 13 58 -1 61 0 58 21 -3 21 -9 22 -95 25
l-93 3 0 -126z"/>
<path d="M1132 1323 c-22 -60 -43 -115 -47 -124 -4 -11 0 -18 13 -21 25 -7 37
1 46 30 7 22 13 24 61 24 41 0 43 -1 49 -26 6 -24 35 -39 55 -27 8 5 5 23 -10
62 -11 30 -27 70 -34 89 -7 19 -19 50 -25 68 -10 25 -18 32 -40 32 -26 0 -30
-7 -68 -107z m86 -5 c13 -37 12 -40 -23 -44 -20 -2 -25 1 -21 13 3 8 9 26 12
39 8 32 17 30 32 -8z"/>
<path d="M1338 1363 c-1 -37 -2 -94 0 -125 3 -56 4 -58 31 -58 26 0 27 2 25
45 -1 25 1 46 4 46 31 6 74 3 82 -6 7 -9 15 -40 19 -77 1 -5 15 -8 32 -8 16 0
28 3 26 8 -3 4 -8 25 -11 47 -4 22 -13 45 -21 51 -13 10 -12 14 5 29 25 23 26
56 1 86 -17 21 -29 24 -104 27 l-85 4 -4 -69z m135 20 c10 -3 17 -14 17 -28 0
-28 -22 -42 -65 -40 -26 1 -30 4 -31 30 0 17 1 33 3 37 4 8 46 8 76 1z"/>
<path d="M2251 1408 c-4 -13 -25 -68 -45 -122 -28 -75 -34 -101 -25 -107 18
-11 46 7 52 34 5 18 13 22 34 21 15 -1 38 -3 49 -3 15 -1 24 -9 28 -26 5 -20
13 -25 37 -25 26 0 30 3 24 18 -5 9 -24 60 -44 112 -20 52 -40 101 -44 108
-14 21 -57 14 -66 -10z m59 -107 c7 -25 5 -28 -16 -27 -34 2 -37 10 -23 50 14
39 22 34 39 -23z"/>
<path d="M2429 1388 c-1 -119 0 -201 5 -205 2 -3 41 -6 85 -6 69 -2 81 0 85
15 6 24 -9 31 -68 32 l-51 1 -2 95 c0 52 -2 98 -2 103 -1 4 -12 7 -26 7 -23 0
-25 -4 -26 -42z"/>
<path d="M2630 1306 c0 -139 -5 -128 65 -128 108 0 113 1 113 25 0 22 -3 23
-59 20 -67 -4 -59 -21 -62 127 -2 74 -2 75 -29 78 l-28 3 0 -125z"/>
<path d="M2829 1410 c-1 -11 -1 -31 -1 -45 0 -187 1 -193 25 -187 12 3 24 9
27 13 4 5 5 198 1 232 -1 4 -12 7 -26 7 -18 0 -25 -6 -26 -20z"/>
<path d="M2983 1408 c-6 -13 -21 -50 -33 -83 -12 -33 -27 -71 -33 -85 -6 -14
-11 -34 -11 -45 -1 -31 36 -25 52 8 13 27 16 29 52 29 50 0 58 -3 64 -26 6
-24 35 -39 53 -27 6 3 -9 57 -36 129 -42 113 -48 122 -72 122 -17 0 -29 -8
-36 -22z m52 -96 c2 -10 4 -18 4 -19 4 -12 -2 -17 -24 -20 -28 -4 -31 5 -13
54 10 27 14 30 21 17 5 -9 10 -23 12 -32z"/>
<path d="M3159 1423 c0 -4 -2 -59 -3 -122 -1 -105 0 -114 19 -121 11 -4 23 -6
27 -4 3 2 5 40 5 85 l-2 80 22 -27 c12 -15 34 -51 49 -81 25 -47 32 -53 60
-53 l31 0 0 125 -1 126 -25 -3 c-26 -3 -26 -4 -25 -81 1 -89 -1 -89 -62 11
-32 52 -46 68 -67 70 -15 2 -27 0 -28 -5z"/>
<path d="M3660 1303 l0 -128 72 2 c40 1 83 2 96 2 15 1 22 7 22 21 0 22 0 22
-79 24 -49 1 -54 3 -58 25 -4 31 11 41 56 35 45 -6 70 3 67 24 -2 14 -14 17
-61 18 -57 1 -59 2 -60 27 -2 29 3 31 81 28 30 -1 43 3 48 15 11 29 -4 34 -95
34 l-89 0 0 -127z"/>
</g>
</svg>
